<?xml version="1.0" encoding="utf-8"?>
<!-- Generator: Adobe Illustrator 18.1.1, SVG Export Plug-In . SVG Version: 6.00 Build 0)  -->
<svg version="1.1" id="Layer_1" xmlns="http://www.w3.org/2000/svg" xmlns:xlink="http://www.w3.org/1999/xlink" x="0px" y="0px"
	 width="256px" height="256px" viewBox="0 0 256 256" enable-background="new 0 0 256 256" xml:space="preserve">
<g>
	<path fill="#E78D02" d="M37.3,64.7c0,0,0.3,1.6,0.8,4.5c0.5,3,1.3,7.3,2.4,12.8c1,5.5,2.3,12.2,3.8,19.8c1.5,7.7,3.3,16.3,5.2,25.7
		c1.9,9.4,4.2,19.5,6.4,30.3c2.3,10.7,4.8,22.1,7.5,33.7c0.7,2.9,1.3,5.9,2,8.8c0.7,3,1.3,6,2.2,8.8c0.8,2.8,1.8,5.5,3.3,7.7
		c1.4,2.2,3.3,3.9,5.6,5.1c4.7,2.4,11.1,3,17.3,3.9c6.2,0.8,12.5,1.3,18.8,1.5c6.3,0.3,12.6,0.3,18.9,0.1c3.1-0.1,6.3-0.3,9.4-0.6
		l2.3-0.2c0,0,0.8-0.1,0.9-0.1l0.3-0.1l0.4-0.1c1-0.3,1.9-0.9,2.7-1.6c0.8-0.7,1.3-1.7,1.7-2.7c0.1-0.3,0.2-0.5,0.2-0.8l0-0.2l0-0.1
		l0-0.1l0.1-0.6l0.4-2.3c0.5-3.1,1.1-6.1,1.6-9.2c1-6,1.9-12.1,2.8-18c0.8-5.9,1.6-11.8,2.4-17.5c0.7-5.7,1.5-11.3,2.2-16.8
		c1.4-10.9,2.6-21.2,3.8-30.7c1.2-9.5,2.2-18.3,3.1-26c1-7.7,1.8-14.5,2.5-20.1c0.7-5.6,1.3-9.9,1.7-12.9c0.4-3,0.6-4.6,0.6-4.6
		s-0.1,1.6-0.2,4.6c-0.2,3-0.4,7.4-0.7,13c-0.3,5.6-0.7,12.4-1.2,20.2c-0.5,7.8-1.1,16.6-1.8,26.2c-0.7,9.6-1.6,20-2.6,30.9
		c-1.1,11-2.2,22.5-3.7,34.5c-0.7,6-1.5,12-2.4,18.2c-0.4,3.1-0.9,6.1-1.4,9.2l-0.4,2.3l-0.1,0.6l0,0.1l0,0.2l-0.1,0.4
		c-0.1,0.5-0.2,1-0.4,1.5c-0.7,2-1.8,3.8-3.3,5.3c-1.5,1.5-3.3,2.6-5.3,3.3l-0.8,0.2l-0.9,0.2c-0.7,0.1-0.7,0.1-1.4,0.2l-2.4,0.2
		c-3.2,0.3-6.4,0.5-9.7,0.7c-6.5,0.3-13,0.3-19.5,0.1c-6.5-0.3-13-0.9-19.4-1.7c-1.6-0.2-3.2-0.4-4.8-0.7l-2.4-0.4
		c-0.8-0.1-1.6-0.3-2.4-0.4c-3.3-0.6-6.7-1.5-9.9-3.2c-3.3-1.6-6.2-4.4-8.1-7.5c-1.9-3.1-3-6.4-3.8-9.5c-0.8-3.2-1.4-6.2-2.1-9.1
		c-0.6-3-1.2-6-1.9-8.9c-2.4-11.8-4.5-23.2-6.5-34c-2-10.8-3.7-21.1-5.3-30.6c-1.6-9.5-2.8-18.2-4-25.9c-1.1-7.7-1.9-14.5-2.6-20.1
		c-0.7-5.6-1.1-10-1.4-12.9C37.4,66.3,37.3,64.7,37.3,64.7z"/>
</g>
<g>
	<path fill="#E78D02" d="M171.2,62.2c0,0,0,0.3-0.1,0.8c-0.1,0.5-0.2,1.3-0.6,2.3c-0.4,1-1.1,2.1-2.2,3.2c-1.1,1.1-2.4,2.2-4.1,3.4
		c-3.3,2.2-7.7,4.2-12.9,6c-5.2,1.8-11.3,3.3-18,4.5c-6.7,1.2-14,2.1-21.8,2.7c-7.8,0.5-16.1,0.6-24.7,0.1
		c-8.6-0.6-17.4-1.8-26.3-4.3c-4.4-1.3-8.8-2.9-13.1-5.4c-2.1-1.3-4.2-2.7-6.1-4.8c-0.9-1-1.8-2.3-2.5-3.6c-0.6-1.4-1.1-3.1-1.1-4.7
		l0-0.5l0-0.2l0-0.4c0-0.2,0.1-0.8,0.2-1.2c0.2-1,0.5-1.6,0.8-2.4c0.7-1.4,1.5-2.6,2.5-3.6c1.9-2.1,4-3.6,6.1-4.8
		c4.3-2.5,8.7-4.1,13.1-5.4c8.9-2.6,17.7-3.7,26.3-4.4c8.6-0.6,16.9-0.4,24.7,0.1c7.8,0.5,15.2,1.4,21.9,2.7
		c6.7,1.3,12.8,2.8,18,4.6c5.2,1.8,9.6,3.8,12.9,6c1.6,1.1,3,2.2,4.1,3.4c1,1.1,1.7,2.3,2.2,3.2c0.4,1,0.6,1.8,0.6,2.3
		C171.2,61.9,171.2,62.2,171.2,62.2z M171.2,62.2c0,0,0-0.3-0.1-0.8c-0.1-0.5-0.2-1.3-0.6-2.3c-0.5-1-1.1-2.1-2.2-3.2
		c-1.1-1.1-2.4-2.2-4.1-3.3c-3.3-2.1-7.8-4-13-5.6c-5.3-1.6-11.4-2.8-18-3.6c-3.3-0.4-6.8-0.7-10.5-0.9c-3.6-0.2-7.4-0.2-11.2-0.2
		c-7.7,0.1-15.8,0.7-24.1,1.8c-4.1,0.6-8.3,1.3-12.5,2.2c-4.2,0.9-8.3,2-12.4,3.4c-2,0.7-4,1.4-6,2.3c-1.9,0.8-3.8,1.8-5.5,2.8
		c-1.7,1.1-3.3,2.3-4.4,3.6c-0.6,0.6-1,1.3-1.3,1.9c-0.1,0.3-0.3,0.7-0.3,0.8c0,0.1-0.1,0.1-0.1,0.4l0,0.4l0,0.2l0,0.1
		c0-0.1,0,0.3,0-0.2c0,0.6,0.2,1.2,0.4,1.8c0.3,0.6,0.7,1.3,1.3,1.9c1.1,1.3,2.7,2.5,4.4,3.6c1.7,1.1,3.6,2,5.5,2.8
		c1.9,0.9,3.9,1.6,6,2.3c4.1,1.4,8.2,2.5,12.4,3.4c4.2,0.9,8.3,1.7,12.5,2.2c8.3,1.1,16.4,1.7,24.1,1.8c3.9,0,7.6,0,11.2-0.2
		c3.6-0.2,7.1-0.5,10.5-0.9c6.7-0.8,12.8-2,18-3.6c5.3-1.6,9.7-3.5,13-5.6c1.7-1.1,3-2.2,4.1-3.3c1.1-1.1,1.7-2.2,2.2-3.2
		c0.4-1,0.6-1.8,0.6-2.3C171.2,62.5,171.2,62.2,171.2,62.2z"/>
</g>
<g>
</g>
<g>
</g>
<g>
</g>
<g>
</g>
<g>
</g>
<g>
</g>
<g>
</g>
<g>
</g>
<g>
</g>
<g>
</g>
<g>
</g>
<g>
</g>
<g>
</g>
<g>
</g>
<g>
</g>
</svg>
