<?xml version="1.0" encoding="utf-8"?>
<!-- Generator: Adobe Illustrator 18.1.1, SVG Export Plug-In . SVG Version: 6.00 Build 0)  -->
<svg version="1.1" id="Layer_1" xmlns="http://www.w3.org/2000/svg" xmlns:xlink="http://www.w3.org/1999/xlink" x="0px" y="0px"
	 width="256px" height="256px" viewBox="0 0 256 256" enable-background="new 0 0 256 256" xml:space="preserve">
<g>
	<circle fill="#71BDC1" cx="125.6" cy="126.1" r="104.3"/>
	<path d="M230,126.1c0,0,0,0.6,0,1.9c-0.1,1.2,0,3.1-0.2,5.5c-0.3,4.8-1.1,11.8-3.5,20.5c-0.3,1.1-0.6,2.2-0.9,3.3
		c-0.4,1.1-0.8,2.3-1.2,3.4c-0.4,1.2-0.9,2.4-1.3,3.6c-0.5,1.2-0.9,2.5-1.5,3.7c-2.1,5-4.8,10.2-8.2,15.4
		c-6.8,10.5-16.4,21.2-29.2,29.9c-6.4,4.4-13.5,8.2-21.3,11.2c-7.8,3.1-16.2,5.2-25,6.3c-1.1,0.2-2.2,0.2-3.3,0.4
		c-1.1,0.1-2.2,0.2-3.4,0.3c-1.1,0-2.3,0.1-3.4,0.1l-1.7,0.1c-0.6,0-1.1,0-1.7,0c-1.1,0-2.3,0-3.4,0c-1.1,0-2.3-0.1-3.5-0.2
		c-2.3-0.1-4.6-0.4-7-0.7c-4.6-0.7-9.3-1.5-13.9-2.9c-2.3-0.6-4.6-1.4-6.9-2.1c-1.1-0.4-2.3-0.9-3.4-1.3l-1.7-0.7l-1.7-0.7
		c-9-3.8-17.6-9.1-25.4-15.4c-3.9-3.2-7.5-6.7-11-10.5c-3.4-3.8-6.6-7.8-9.5-12.1c-11.6-17-18-38-18-59c0-21,6.4-41.9,18-59
		c2.9-4.2,6-8.3,9.5-12.1c3.5-3.7,7.1-7.3,11-10.5c7.8-6.4,16.4-11.6,25.4-15.4l1.7-0.7l1.7-0.7c1.1-0.4,2.3-0.9,3.4-1.3
		c2.3-0.7,4.6-1.6,6.9-2.1c4.6-1.3,9.3-2.2,13.9-2.9c2.3-0.3,4.6-0.6,7-0.7c1.2-0.1,2.3-0.2,3.5-0.2c1.1,0,2.3,0,3.4,0
		c0.6,0,1.1,0,1.7,0l1.7,0.1c1.1,0,2.2,0.1,3.4,0.1c1.1,0.1,2.3,0.2,3.4,0.3c1.1,0.1,2.2,0.2,3.3,0.4c8.8,1.1,17.3,3.2,25,6.3
		c7.8,3,14.9,6.9,21.3,11.2c12.7,8.8,22.4,19.5,29.2,30c3.4,5.2,6.1,10.5,8.2,15.4c0.6,1.2,1,2.5,1.5,3.7c0.5,1.2,1,2.4,1.3,3.6
		c0.4,1.2,0.8,2.3,1.2,3.4c0.3,1.1,0.6,2.2,0.9,3.3c2.4,8.7,3.2,15.7,3.4,20.5c0.2,2.4,0.2,4.2,0.2,5.5
		C229.9,125.4,230,126.1,230,126.1z M230,126.1c0,0,0-0.6-0.1-1.9c-0.1-1.2,0-3.1-0.3-5.5c-0.3-4.8-1.1-11.8-3.5-20.5
		c-2.4-8.6-6.4-18.9-13.4-29.2c-6.9-10.3-16.6-20.9-29.4-29.3c-6.4-4.2-13.5-7.8-21.3-10.6c-7.7-2.8-16.1-4.7-24.7-5.6
		c-1.1-0.1-2.2-0.2-3.3-0.3c-1.1-0.1-2.2-0.1-3.3-0.2c-1.1,0-2.2,0-3.4,0l-1.7,0l-1.6,0.1c-1.1,0-2.2,0.1-3.4,0.1
		c-1.1,0.1-2.2,0.2-3.4,0.3c-2.3,0.1-4.5,0.5-6.8,0.8c-4.5,0.8-9,1.7-13.4,3.1c-2.2,0.6-4.4,1.5-6.6,2.2c-1.1,0.4-2.2,0.9-3.3,1.3
		l-1.6,0.7L84,32.3c-17.2,7.8-32.6,20.8-43.5,37.4c-5.4,8.3-9.6,17.3-12.5,26.9c-1.5,4.8-2.5,9.7-3.2,14.6l-0.5,3.7
		c-0.2,1.2-0.2,2.5-0.3,3.7c-0.2,2.4-0.2,5.1-0.3,7.5c0.1,5,0.3,10,1.1,14.9c0.8,4.9,1.8,9.8,3.2,14.6c2.9,9.5,7.1,18.6,12.5,26.9
		C51.4,199,66.8,212.1,84,219.9l1.6,0.7l1.6,0.7c1.1,0.4,2.2,0.9,3.3,1.3c2.2,0.8,4.4,1.6,6.6,2.2c4.4,1.4,9,2.3,13.5,3.1
		c2.3,0.3,4.5,0.7,6.7,0.8c1.1,0.1,2.2,0.2,3.4,0.3c1.1,0,2.3,0.1,3.4,0.1l1.7,0.1l1.7,0c1.1,0,2.2,0,3.3,0c1.1-0.1,2.2-0.1,3.3-0.2
		c1.1-0.1,2.2-0.1,3.3-0.3c8.7-0.9,17-2.8,24.7-5.6c7.7-2.8,14.8-6.5,21.3-10.6c12.8-8.4,22.5-18.9,29.4-29.3
		c7-10.4,11-20.6,13.4-29.2c2.4-8.6,3.2-15.7,3.5-20.5c0.2-2.4,0.2-4.2,0.3-5.5C229.9,126.7,230,126.1,230,126.1z"/>
</g>
<g>
	<path d="M26.3,17.7c0,0,0.9,0.8,2.5,2.4c1.7,1.6,4.1,3.8,7.2,6.8c6.1,5.9,15,14.2,25.4,24.4c5.2,5.1,10.9,10.6,16.9,16.4
		c6,5.8,12.2,12,18.8,18.4c6.5,6.4,13.2,13,20,19.7c6.8,6.7,13.7,13.6,20.5,20.4c6.8,6.9,13.7,13.8,20.4,20.5
		c6.8,6.8,13.3,13.5,19.7,20c6.4,6.5,12.5,12.8,18.4,18.7c5.8,6,11.3,11.6,16.4,16.9c5.1,5.2,9.7,10.1,13.8,14.3
		c4.1,4.3,7.6,8,10.6,11.1c2.9,3.1,5.2,5.5,6.8,7.2c1.6,1.7,2.4,2.5,2.4,2.5s-0.9-0.8-2.5-2.4c-1.7-1.6-4.1-3.8-7.2-6.8
		c-3.1-2.9-6.8-6.5-11.1-10.6c-4.3-4.1-9.1-8.7-14.3-13.8c-5.2-5.1-10.9-10.6-16.9-16.4c-6-5.8-12.2-12-18.7-18.4
		c-6.5-6.4-13.2-13-20-19.7c-6.8-6.7-13.7-13.6-20.5-20.4c-6.8-6.9-13.7-13.8-20.4-20.5c-6.7-6.8-13.3-13.5-19.7-20
		C88.2,82,82,75.7,76.2,69.7c-5.8-6-11.3-11.6-16.4-16.9C49.7,42.4,41.3,33.6,35.4,27.5c-2.9-3.1-5.2-5.5-6.8-7.2
		C27.1,18.6,26.3,17.7,26.3,17.7z"/>
</g>
<g>
	<path d="M241.2,18c0,0-13.5,14-33.7,35c-5.1,5.2-10.5,10.9-16.3,16.9c-5.8,6-11.9,12.3-18.3,18.8c-12.7,13-26.2,27-39.8,40.9
		c-6.8,7-13.5,14-20.2,20.8c-6.6,6.9-13.2,13.6-19.6,20.1c-6.4,6.4-12.7,12.6-18.7,18.4c-3,2.9-5.9,5.7-8.8,8.4
		c-2.9,2.7-5.6,5.3-8.3,7.8c-5.3,5-10.2,9.5-14.6,13.5c-4.4,4-8.2,7.5-11.4,10.3c-3.2,2.8-5.7,5-7.4,6.5c-1.7,1.5-2.7,2.3-2.7,2.3
		l-0.5-0.5c0,0,0.8-0.9,2.3-2.7c1.5-1.7,3.7-4.2,6.5-7.4c2.8-3.2,6.3-7,10.3-11.4c4-4.4,8.5-9.3,13.5-14.6c2.5-2.7,5.1-5.4,7.8-8.3
		c2.7-2.8,5.5-5.8,8.4-8.8c5.8-6,11.9-12.3,18.4-18.7c6.5-6.4,13.2-13,20.1-19.6c6.9-6.6,13.8-13.4,20.8-20.2
		c13.9-13.5,27.8-27.1,40.9-39.8c6.5-6.3,12.8-12.5,18.8-18.3c6-5.8,11.7-11.3,16.9-16.3c21-20.2,35-33.7,35-33.7L241.2,18z"/>
</g>
<g>
	<path d="M-291.3-49.4c0,0,0.1,0.1,0.2,0.2c0.1,0.1,0.2,0.3,0.3,0.5c0.2,0.3,0.3,0.6,0.2,0.7c-0.1,0.1-0.3,0-0.7-0.2
		c-0.2-0.1-0.3-0.2-0.5-0.3c-0.2-0.1-0.2-0.2-0.2-0.2s-0.1-0.1-0.2-0.2c-0.1-0.1-0.2-0.3-0.3-0.5c-0.2-0.3-0.3-0.6-0.2-0.7
		c0.1-0.1,0.3,0,0.7,0.2c0.2,0.1,0.3,0.2,0.5,0.3C-291.4-49.5-291.3-49.4-291.3-49.4z"/>
</g>
<g>
</g>
<g>
</g>
<g>
</g>
<g>
</g>
<g>
</g>
<g>
</g>
<g>
</g>
<g>
</g>
<g>
</g>
<g>
</g>
<g>
</g>
<g>
</g>
<g>
</g>
<g>
</g>
<g>
</g>
</svg>
