<?xml version="1.0" encoding="utf-8"?>
<!-- Generator: Adobe Illustrator 18.1.1, SVG Export Plug-In . SVG Version: 6.00 Build 0)  -->
<svg version="1.1" id="Layer_1" xmlns="http://www.w3.org/2000/svg" xmlns:xlink="http://www.w3.org/1999/xlink" x="0px" y="0px"
	 width="256px" height="256px" viewBox="0 0 256 256" enable-background="new 0 0 256 256" xml:space="preserve">
<g>
	<path d="M25.3,16.7c0,0,0.9,0.8,2.5,2.4c1.7,1.6,4.1,3.8,7.2,6.8c6.1,5.9,15,14.2,25.4,24.4c5.2,5.1,10.9,10.6,16.9,16.4
		c6,5.8,12.2,12,18.8,18.4c6.5,6.4,13.2,13,20,19.7c6.8,6.7,13.7,13.6,20.5,20.4c6.8,6.9,13.7,13.8,20.4,20.5
		c6.8,6.8,13.3,13.5,19.7,20c6.4,6.5,12.5,12.8,18.4,18.7c5.8,6,11.3,11.6,16.4,16.9c5.1,5.2,9.7,10.1,13.8,14.3
		c4.1,4.3,7.6,8,10.6,11.1c2.9,3.1,5.2,5.5,6.8,7.2c1.6,1.7,2.4,2.5,2.4,2.5s-0.9-0.8-2.5-2.4c-1.7-1.6-4.1-3.8-7.2-6.8
		c-3.1-2.9-6.8-6.5-11.1-10.6c-4.3-4.1-9.1-8.7-14.3-13.8c-5.2-5.1-10.9-10.6-16.9-16.4c-6-5.8-12.2-12-18.7-18.4
		c-6.5-6.4-13.2-13-20-19.7c-6.8-6.7-13.7-13.6-20.5-20.4c-6.8-6.9-13.7-13.8-20.4-20.5c-6.7-6.8-13.3-13.5-19.7-20
		C87.2,81,81,74.7,75.2,68.7c-5.8-6-11.3-11.6-16.4-16.9C48.7,41.4,40.3,32.6,34.4,26.5c-2.9-3.1-5.2-5.5-6.8-7.2
		C26.1,17.6,25.3,16.7,25.3,16.7z"/>
</g>
<g>
	<path d="M240.2,17c0,0-13.5,14-33.7,35c-5.1,5.2-10.5,10.9-16.3,16.9c-5.8,6-11.9,12.3-18.3,18.8c-12.7,13-26.2,27-39.8,40.9
		c-6.8,7-13.5,14-20.2,20.8c-6.6,6.9-13.2,13.6-19.6,20.1c-6.4,6.4-12.7,12.6-18.7,18.4c-3,2.9-5.9,5.7-8.8,8.4
		c-2.9,2.7-5.6,5.3-8.3,7.8c-5.3,5-10.2,9.5-14.6,13.5c-4.4,4-8.2,7.5-11.4,10.3c-3.2,2.8-5.7,5-7.4,6.5c-1.7,1.5-2.7,2.3-2.7,2.3
		l-0.5-0.5c0,0,0.8-0.9,2.3-2.7c1.5-1.7,3.7-4.2,6.5-7.4c2.8-3.2,6.3-7,10.3-11.4c4-4.4,8.5-9.3,13.5-14.6c2.5-2.7,5.1-5.4,7.8-8.3
		c2.7-2.8,5.5-5.8,8.4-8.8c5.8-6,11.9-12.3,18.4-18.7c6.5-6.4,13.2-13,20.1-19.6c6.9-6.6,13.8-13.4,20.8-20.2
		c13.9-13.5,27.8-27.1,40.9-39.8c6.5-6.3,12.8-12.5,18.8-18.3c6-5.8,11.7-11.3,16.9-16.3c21-20.2,35-33.7,35-33.7L240.2,17z"/>
</g>
<g>
	<circle fill="#F4E06C" cx="129.7" cy="128" r="97.4"/>
	<path d="M227,128c0,0,0,0.6,0,1.8c0,1.2,0,2.9-0.2,5.1c-0.3,4.5-1,11-3.2,19.1c-1,4.1-2.6,8.4-4.6,13.1c-2,4.6-4.5,9.5-7.7,14.4
		c-6.3,9.8-15.3,19.8-27.2,28c-6,4.1-12.6,7.6-19.9,10.5c-7.3,2.9-15.1,4.8-23.4,5.9c-1,0.2-2.1,0.2-3.1,0.3c-1,0.1-2.1,0.2-3.1,0.3
		c-1.1,0-2.1,0.1-3.2,0.1l-1.6,0.1l-1.6,0c-1.1,0-2.1,0-3.2,0c-1.1,0-2.2-0.1-3.2-0.2c-2.2-0.1-4.3-0.4-6.5-0.6
		c-4.3-0.6-8.7-1.4-13-2.7c-2.2-0.5-4.3-1.3-6.4-2c-1.1-0.4-2.1-0.8-3.2-1.2l-1.6-0.6l-1.6-0.7c-8.4-3.6-16.4-8.5-23.7-14.4
		c-3.7-3-7-6.3-10.3-9.8c-3.2-3.5-6.1-7.3-8.9-11.3c-10.9-15.9-16.8-35.5-16.8-55c0-19.6,5.9-39.1,16.8-55c2.7-4,5.6-7.8,8.9-11.3
		c3.2-3.5,6.6-6.8,10.3-9.8c7.3-6,15.3-10.8,23.7-14.4l1.6-0.7l1.6-0.6c1.1-0.4,2.1-0.8,3.2-1.2c2.2-0.7,4.3-1.4,6.4-2
		c4.3-1.2,8.7-2,13-2.7c2.2-0.2,4.3-0.5,6.5-0.6c1.1-0.1,2.2-0.2,3.2-0.2c1.1,0,2.1,0,3.2,0c0.5,0,1,0,1.6,0l1.6,0.1
		c1,0,2.1,0.1,3.1,0.1c1.1,0.1,2.1,0.2,3.2,0.3c1,0.1,2.1,0.2,3.1,0.3c8.2,1.1,16.1,3,23.4,5.9c7.3,2.8,13.9,6.4,19.9,10.5
		c11.9,8.2,20.9,18.2,27.2,28c3.2,4.9,5.7,9.8,7.7,14.4c2,4.6,3.6,9,4.6,13.1c2.2,8.1,2.9,14.7,3.2,19.1c0.2,2.2,0.2,4,0.2,5.1
		C227,127.4,227,128,227,128z M227,128c0,0,0-0.6,0-1.8c-0.1-1.2,0-2.9-0.2-5.1c-0.3-4.5-1-11-3.3-19.1c-2.2-8-6-17.6-12.5-27.3
		c-6.4-9.7-15.5-19.5-27.5-27.3c-6-3.9-12.6-7.3-19.8-9.9c-7.2-2.7-15-4.4-23.1-5.3c-1-0.1-2-0.2-3-0.2c-1-0.1-2-0.1-3.1-0.2
		c-1,0-2.1,0-3.1,0l-1.6,0l-1.5,0.1c-1,0-2.1,0.1-3.1,0.1c-1,0.1-2.1,0.2-3.1,0.3c-2.1,0.1-4.2,0.5-6.3,0.8
		c-4.2,0.7-8.4,1.6-12.6,2.9c-2.1,0.6-4.1,1.4-6.2,2.1c-1,0.4-2,0.8-3,1.2l-1.5,0.6l-1.5,0.7c-16,7.3-30.5,19.5-40.6,34.9
		c-5,7.7-9,16.2-11.7,25.1c-1.4,4.5-2.3,9-3,13.6l-0.4,3.5c-0.2,1.2-0.2,2.3-0.3,3.5c-0.2,2.2-0.2,4.8-0.3,7c0.1,4.7,0.3,9.3,1,14
		c0.7,4.6,1.7,9.2,3,13.6c2.7,8.9,6.7,17.4,11.7,25.1c10.1,15.4,24.5,27.6,40.6,34.9l1.5,0.7l1.5,0.6c1,0.4,2,0.8,3,1.2
		c2.1,0.7,4.1,1.5,6.2,2.1c4.1,1.3,8.4,2.2,12.6,2.9c2.1,0.3,4.2,0.6,6.3,0.8c1,0.1,2.1,0.2,3.1,0.3c1.1,0,2.1,0.1,3.2,0.1l1.5,0.1
		l1.6,0c1,0,2.1,0,3.1,0c1-0.1,2.1-0.1,3.1-0.2c1-0.1,2-0.1,3-0.3c8.1-0.9,15.9-2.6,23.1-5.3c7.2-2.6,13.9-6,19.8-9.9
		c12-7.8,21-17.7,27.5-27.3c6.5-9.7,10.3-19.3,12.5-27.3c2.3-8.1,3-14.6,3.3-19.1c0.2-2.2,0.2-4,0.2-5.1C227,128.6,227,128,227,128z
		"/>
</g>
<g>
	<rect x="74.6" y="77.7" fill="none" width="132.6" height="124.3"/>
	<path d="M94.7,146.4c-3,0.6-5.8,1.1-8.4,1.4c-2.6,0.3-4.8,0.4-6.7,0.3c-0.6,0-1.1-0.2-1.5-0.6c-0.4-0.4-0.5-1.1-0.3-2
		c0.1-0.2,0.5-0.5,1.5-0.7c0.9-0.3,2.1-0.5,3.7-0.8c1.5-0.3,3.3-0.6,5.3-1c2-0.4,4.1-0.8,6.3-1.2l-0.4-16.9c-2.4-0.4-4.7-1-7-1.7
		c-2.2-0.7-4.2-1.6-5.9-2.7c-1.7-1.1-3-2.4-4-4c-1-1.6-1.5-3.5-1.5-5.8s0.5-4.4,1.4-6.4c0.9-2,2.2-3.9,3.8-5.6
		c1.6-1.7,3.5-3.4,5.5-4.9c2.1-1.5,4.3-2.8,6.7-4l-0.3-12.4c0-0.5,0.2-0.8,0.6-1c0.4-0.1,0.9-0.2,1.4-0.1c0.5,0.1,1,0.2,1.5,0.4
		c0.5,0.2,0.8,0.4,1,0.5c0.1,1.7,0.1,3.5,0.1,5.3c0,1.8,0.1,3.6,0.1,5.5c2.4-0.9,4.8-1.6,7.1-2.1c2.3-0.5,4.5-0.7,6.5-0.7
		c0.6,0,1.2,0,1.8,0c0.6,0,1.2,0,1.7,0.1c0.5,0.1,0.9,0.4,1.2,0.7c0.3,0.4,0.5,0.9,0.5,1.7c0,1.8-0.6,3.2-1.8,4
		c-1.2,0.8-2.7,1.2-4.4,1.2l-3.7-1.2c-1.3,0-2.6,0.2-4.1,0.6c-1.5,0.4-3,0.9-4.6,1.5c0.1,4.4,0.2,8.8,0.3,13.3
		c0.1,4.5,0.2,9,0.3,13.6c3.1,0.3,6.2,0.7,9.3,1c3.1,0.3,5.9,0.8,8.5,1.4c2.5,0.6,4.6,1.5,6.2,2.6c1.6,1.1,2.4,2.7,2.4,4.6
		c0,1.7-0.7,3.2-2.2,4.7c-1.5,1.5-3.4,2.9-5.8,4.2c-2.4,1.3-5.2,2.5-8.3,3.6c-3.1,1.1-6.2,2-9.4,2.8c0,1.1,0,2.3,0,3.4
		c0,1.1,0.1,2.2,0.1,3.3c0.3,0.6,0.4,1.1,0.1,1.7c-0.3,0.5-0.7,1-1.2,1.3c-0.5,0.3-1.1,0.4-1.8,0.3c-0.6-0.1-1.1-0.4-1.5-1.1
		L94.7,146.4z M80.7,110.5c0,1.4,0.3,2.7,1,3.7s1.6,1.9,2.8,2.6c1.2,0.7,2.6,1.3,4.2,1.8c1.6,0.5,3.3,0.9,5.2,1.2l-0.6-24.1
		c-1.7,0.9-3.3,1.9-4.8,3.1c-1.5,1.1-2.9,2.4-4,3.7c-1.1,1.3-2.1,2.6-2.8,4S80.7,109.1,80.7,110.5z M119.8,130.5
		c0-0.9-0.6-1.6-1.8-2.1s-2.8-0.9-4.8-1.2c-2-0.3-4.2-0.6-6.8-0.8c-2.5-0.2-5.1-0.5-7.8-0.9c0.1,2.6,0.1,5.2,0.2,7.7
		c0.1,2.5,0.1,5,0.2,7.6c2.2-0.5,4.5-1.1,6.7-1.8c2.2-0.7,4.2-1.4,6.1-2.3c1.9-0.8,3.5-1.8,4.9-2.8
		C118.1,132.9,119.2,131.7,119.8,130.5z"/>
	<path d="M130.5,80.1c0-0.5,0.2-0.8,0.6-1c0.4-0.1,0.9-0.2,1.4-0.1c0.5,0.1,1,0.2,1.5,0.4c0.5,0.2,0.8,0.4,1,0.5
		c0.3,11.3,0.4,22.5,0.4,33.7s0.1,22.5,0.4,33.9c0.3,0.6,0.4,1.1,0.1,1.7c-0.3,0.5-0.7,1-1.2,1.3c-0.5,0.3-1.1,0.4-1.8,0.3
		s-1.1-0.4-1.5-1.1L130.5,80.1z"/>
	<path d="M139.8,147.5c1.3-2.1,2.7-4.7,4.4-7.6c1.7-3,3.4-6.2,5.2-9.7c1.8-3.5,3.5-7.1,5.2-10.8c1.7-3.7,3.2-7.4,4.6-10.9
		c1.4-3.6,2.5-6.9,3.4-10.1s1.3-6,1.4-8.5c-0.3-2.2-0.8-3.9-1.5-5c-0.6-1.1-1.6-1.5-3-1.1c-1.3,0.4-3.2,1.6-5.5,3.7
		c-2.3,2.1-5.4,5.2-9.2,9.4c-0.6-0.4-1.1-0.8-1.7-1.3c-0.5-0.5-0.8-1-0.8-1.7c0-0.1,0-0.2,0-0.3c0-0.1,0-0.2,0-0.3
		c1.3-1.4,2.7-2.9,4.2-4.6s3.2-3.3,5.1-4.9c1.8-1.5,3.8-2.8,5.8-3.8c2-1,4.2-1.5,6.4-1.5c1.7,0.8,2.8,2.2,3.5,4.1
		c0.7,1.9,0.9,4.3,0.8,7c-0.1,2.7-0.6,5.7-1.4,9.1c-0.8,3.3-1.8,6.7-3,10.2c-1.2,3.5-2.5,7-4,10.5c-1.5,3.5-3,6.8-4.5,10
		c-1.5,3.1-2.9,6-4.3,8.6s-2.6,4.7-3.6,6.3l25.4-4.8c0.7,0,1.3,0.4,1.9,1.2c0.6,0.8,0.9,1.7,1,2.9l-32.7,6.7c-0.9,0-1.6-0.1-2.1-0.3
		C140.1,149.6,139.8,148.8,139.8,147.5z"/>
</g>
<g>
</g>
<g>
</g>
<g>
</g>
<g>
</g>
<g>
</g>
<g>
</g>
<g>
</g>
<g>
</g>
<g>
</g>
<g>
</g>
<g>
</g>
<g>
</g>
<g>
</g>
<g>
</g>
<g>
</g>
</svg>
