<?xml version="1.0" encoding="utf-8"?>
<!-- Generator: Adobe Illustrator 18.1.1, SVG Export Plug-In . SVG Version: 6.00 Build 0)  -->
<svg version="1.1" id="Layer_1" xmlns="http://www.w3.org/2000/svg" xmlns:xlink="http://www.w3.org/1999/xlink" x="0px" y="0px"
	 width="256px" height="190px" viewBox="0 0 256 190" enable-background="new 0 0 256 190" xml:space="preserve">
<g>
	<path fill="#FFFFFF" d="M117.8,139.9c0,0,0.2-0.1,0.5-0.2c0.3-0.1,0.8-0.2,1.4-0.5c1.1-0.4,2.8-1.3,4.7-2.6c1.9-1.4,3.9-3.4,5.9-6
		c1.9-2.6,3.6-5.8,4.9-9.7c1.3-3.7,2.2-8,2.8-12.6c0.3-2.3,0.7-4.7,1-7.2c0.2-1.2,0.4-2.5,0.5-3.8c0.2-1.2,0.4-2.5,0.6-3.8
		c0.9-5.2,2.1-10.5,3.8-15.8c1.8-5.3,4-10.6,7-15.6c1.5-2.5,3.1-4.9,5-7.2l0.7-0.9l0.7-0.8c0.4-0.5,1-1.1,1.5-1.7
		c1-1.1,2.1-2.1,3.2-3c4.5-3.8,9.5-6.9,15-8.7c2.7-0.9,5.5-1.5,8.3-1.8c2.8-0.3,5.6-0.2,8.2,0.1c2.7,0.4,5.2,1,7.6,2
		c2.3,0.9,4.5,2.1,6.4,3.5c3.8,2.7,6.5,6.1,8.4,9.1c1.8,3.1,3,5.9,3.8,8.3c0.8,2.3,1.3,4.2,1.7,5.5c0.3,1.3,0.5,2,0.5,2l-0.8,0.3
		c0,0-0.4-0.6-1.1-1.7c-0.7-1.1-1.8-2.7-3.1-4.6c-1.4-1.9-3-4.2-5.2-6.5c-2.1-2.3-4.8-4.5-8-6.1c-3.2-1.6-7-2.8-11-3.1
		c-2-0.2-4.1-0.1-6.3,0.2c-2.1,0.2-4.3,0.8-6.5,1.4c-4.4,1.4-8.8,3.5-12.8,6.4c-1,0.7-2,1.5-2.9,2.3c-0.5,0.4-0.9,0.8-1.3,1.3
		l-0.7,0.7l-0.6,0.7c-1.8,1.8-3.3,3.9-4.8,6c-2.9,4.3-5.2,9-7.2,13.9c-1.9,4.9-3.4,9.9-4.6,14.8c-0.3,1.2-0.6,2.5-0.9,3.7
		c-0.3,1.2-0.5,2.4-0.8,3.6c-0.5,2.4-1,4.8-1.5,7.1c-1.1,4.7-2.3,9.1-4,13c-1.6,3.9-3.8,7.3-6,9.9c-2.3,2.6-4.6,4.6-6.8,5.8
		c-2.1,1.3-4,2-5.3,2.3c-0.6,0.2-1.1,0.3-1.4,0.4c-0.3,0.1-0.5,0.1-0.5,0.1L117.8,139.9z"/>
</g>
<g>
	<path fill="#FFFFFF" d="M207.2,69.4c1.7,0.2,3.3,0.5,5,0.8c1.6,0.3,3.3,0.7,4.9,1.1c3.2,0.8,6.5,1.7,9.7,2.7c3.2,1,6.3,2.1,9.5,3.3
		c3.1,1.2,6.2,2.5,9.3,3.8l7.5,3.3l-8.1,1.5c-3.3,0.6-6.5,1.2-9.8,1.7c-3.3,0.5-6.6,1-9.9,1.4c-1.7,0.2-3.3,0.4-5,0.5
		c-1.7,0.1-3.3,0.2-5,0.3c-1.7,0.1-3.4,0.1-5,0.1l-2.5,0c-0.8,0-1.7-0.1-2.5-0.1c1.6-0.4,3.3-0.8,4.9-1.2c0.8-0.2,1.6-0.4,2.4-0.6
		l2.4-0.6l9.7-2.3l4.8-1.1l4.9-1.1c3.2-0.7,6.5-1.4,9.8-2l-0.6,4.8l-18-8.1l-9-4.1c-1.5-0.7-3-1.4-4.5-2.1
		C210.2,70.9,208.7,70.2,207.2,69.4z"/>
</g>
<g>
	<path fill="#FFFFFF" d="M209.8,51c0,0-0.2-0.2-0.5-0.5c-0.2-0.1-0.4-0.3-0.6-0.6c-0.3-0.3-0.5-0.6-0.8-0.9c-1.2-1.4-2.6-3.8-3.6-7
		c-0.5-1.6-0.9-3.4-1.3-5.4c-0.4-2-0.7-4.1-1.2-6.3c-0.5-2.2-1.1-4.5-2.2-6.6c-1.1-2.1-2.7-4.2-4.8-5.2c-2.2-1.1-4.9-1.6-7.1-0.8
		c-0.5,0.2-1,0.5-1.4,0.9c-0.2,0.2-0.4,0.4-0.6,0.6l-0.1,0.2l-0.1,0.1l0,0c-0.1,0.1,0.1-0.1,0,0l-0.3,0.5c-0.5,0.9-0.9,2.3-1,3.8
		c-0.2,1.5-0.2,3.2-0.6,5c-0.2,0.9-0.4,1.9-0.8,2.8l-0.1,0.2l-0.1,0.3l-0.1,0.3l-0.3,0.6c-0.3,0.5-0.6,1-0.9,1.4
		c-1.3,1.7-3,3-4.9,3.9c-1.9,0.9-3.9,1.4-5.9,1.6c-1,0.1-2.1,0.1-3.1,0c-0.5,0-1-0.1-1.6-0.2c-0.5-0.1-0.8-0.1-1.4-0.3
		c-2.1-0.4-3.9-1.1-5.7-1.9c-3.6-1.5-6.8-3.5-10-5.1c-3.1-1.6-6.4-2.9-9.5-3.2c-1.6-0.2-3-0.1-4.5,0.3c-0.4,0.1-1.2,0.4-1.8,0.8
		c-0.6,0.4-1.2,0.7-1.7,1.2c-1,0.9-1.7,2-2.1,3.1c-0.1,0.5-0.2,1-0.2,1.5c0,0.1,0,0.2,0.1,0.4l0,0.2l0,0c0,0.1-0.1-0.4,0-0.2
		l0.1,0.2l0.2,0.7c0,0.1,0.1,0.3,0.1,0.3l0.1,0.1c0,0.1,0.1,0.1,0.1,0.2c0.1,0.1,0.2,0.2,0.2,0.4c0.1,0.2,0.4,0.5,0.6,0.8
		c0.4,0.5,1,1,1.5,1.6c1.2,1.1,2.7,2.2,4.2,3.5c1.5,1.3,3.2,2.8,4.6,5c0.4,0.5,0.6,1.1,0.9,1.7l0.1,0.2l0.2,0.4l0.1,0.3
		c0.1,0.2,0.2,0.3,0.3,0.8c0.1,0.4,0.2,0.7,0.3,1.1c0.1,0.4,0.1,0.7,0.2,1c0.1,0.7,0.1,1.3,0.2,1.9c0,2.6-0.5,5-1.4,7.1
		c-0.9,2.1-2.1,4-3.5,5.7l-0.6,0.6l-0.3,0.4l-0.2,0.2l-0.5,0.5l-0.6,0.6c-0.8,0.7-1.5,1.3-2.3,1.9c-1.5,1.2-3.1,2.2-4.6,3.1
		c-1.5,0.9-2.9,1.8-4.2,2.6l-0.9,0.6l-1,0.7c-0.5,0.4-1.1,0.8-1.7,1.3c-2.2,1.8-3.9,3.7-4.8,5.7c-0.5,1-0.7,2-0.8,3.1
		c-0.1,0.3,0,0.9,0,1.4c0.1,0.5,0.1,1,0.3,1.5c0.6,2,1.8,3.9,3.3,5.4c1.5,1.5,3.3,2.5,5.1,3.1l0.1,0l0,0c0,0,0.1,0-0.1,0l0.2,0.1
		l0.4,0.1c0.3,0.1,0.6,0.1,0.8,0.2c0.4,0.1,0.8,0.2,1.3,0.2c0.5,0,0.9,0.1,1.4,0.1c0.5,0,0.9,0,1.4,0c1.8-0.1,3.4-0.4,4.9-0.9
		c2.9-1,5.1-2.3,6.5-3.3c0.7-0.5,1.2-0.9,1.6-1.2c0.4-0.3,0.5-0.4,0.5-0.4l0.7,0.6c0,0-0.1,0.2-0.4,0.6c-0.3,0.4-0.7,0.9-1.3,1.6
		c-0.3,0.3-0.7,0.7-1.1,1.1c-0.4,0.4-0.9,0.8-1.4,1.2c-1,0.9-2.3,1.8-3.9,2.6c-1.6,0.8-3.4,1.6-5.6,2.1c-0.5,0.1-1.1,0.2-1.7,0.3
		c-0.6,0.1-1.2,0.1-1.8,0.2c-0.6,0.1-1.3,0-2,0c-0.3,0-0.6,0-0.9-0.1l-0.4,0l-0.2,0l-0.4-0.1c-2.7-0.4-5.4-1.6-7.9-3.5
		c-2.4-1.8-4.6-4.4-6-7.7c-0.3-0.8-0.6-1.7-0.8-2.6c-0.2-0.9-0.3-1.8-0.3-3l0-0.8l0-0.6l0-0.6l0-0.3l0.1-0.6c0.2-1,0.4-1.9,0.7-2.8
		c1.3-3.7,3.8-6.8,6.5-9.3c0.7-0.6,1.4-1.2,2.1-1.8l1-0.8l1.1-0.8c1.4-1,2.9-1.9,4.3-2.9c2.8-1.9,5.3-3.6,7.1-5.7c1.8-2,3-4.6,3-6.8
		c0-0.3,0-0.5,0-0.8l0-0.4c0-0.1,0-0.1,0-0.2c0,0-0.1-0.3-0.2-0.5l-0.1-0.3l0-0.1c-0.1-0.2,0.1,0.2,0.1,0.1l0-0.1
		c-0.1-0.2-0.2-0.5-0.4-0.7c-0.6-1-1.5-2.1-2.8-3.3c-1.2-1.2-2.7-2.4-4.2-3.9c-0.8-0.8-1.5-1.6-2.2-2.6c-0.4-0.5-0.7-1-1-1.6
		c-0.2-0.3-0.3-0.5-0.5-0.9c-0.2-0.4-0.3-0.7-0.4-1.1l-0.2-0.5c-0.1-0.2-0.1-0.3-0.1-0.4l-0.2-0.7l0-0.2c0,0.2-0.1-0.4-0.1-0.4
		l0-0.1l-0.1-0.5c0-0.3-0.1-0.7-0.1-1c0-1.4,0.2-2.8,0.7-4.1c0.9-2.5,2.5-4.6,4.4-6.1c0.9-0.8,1.9-1.4,3-2c0.5-0.3,1.1-0.5,1.7-0.7
		c0.3-0.1,0.5-0.2,0.9-0.3l1-0.3c2.2-0.5,4.6-0.5,6.8-0.2c4.4,0.7,8.1,2.5,11.5,4.3c3.3,1.9,6.4,3.9,9.4,5.3
		c1.5,0.7,3.1,1.4,4.5,1.7c0.3,0.1,0.8,0.2,1.2,0.3c0.3,0,0.7,0.1,1.1,0.2c0.7,0.1,1.5,0.1,2.2,0.1c3-0.1,5.9-1.3,7.5-3.2
		c0.2-0.2,0.3-0.4,0.5-0.7c0.1-0.2,0.2-0.4,0.3-0.5l0.2-0.3l0-0.1c0.1-0.1,0,0.1,0,0.1l0-0.1c0.3-0.6,0.5-1.3,0.6-2
		c0.3-1.4,0.5-3.1,0.8-4.8c0.3-1.7,0.8-3.5,1.9-5.3l0.3-0.5c0,0,0.2-0.2,0.1-0.2l0.1-0.1l0.1-0.1l0.3-0.3c0.3-0.4,0.7-0.7,1.1-1
		c0.8-0.6,1.7-1,2.6-1.3c1.8-0.6,3.6-0.6,5.3-0.3c1.7,0.3,3.2,0.9,4.6,1.7c1.4,0.8,2.6,2,3.5,3.1c0.9,1.2,1.6,2.4,2.2,3.7
		c1.1,2.5,1.6,5,2,7.3c0.4,2.3,0.6,4.5,0.9,6.4c0.3,2,0.6,3.7,0.9,5.3c0.8,3.1,1.9,5.4,2.9,6.8c0.2,0.4,0.5,0.6,0.7,0.9
		c0.2,0.2,0.4,0.5,0.6,0.6c0.3,0.3,0.5,0.5,0.5,0.5L209.8,51z"/>
</g>
<g>
	<path fill="#FFFFFF" d="M220.9,97.5c0,0,0.5,0.9,1.3,2.4c0.2,0.4,0.5,0.8,0.7,1.3c0.2,0.5,0.4,1,0.7,1.6c0.2,0.6,0.5,1.2,0.8,1.8
		c0.3,0.7,0.5,1.3,0.7,2.1c0.2,0.7,0.5,1.5,0.7,2.3c0.2,0.8,0.4,1.6,0.6,2.5c0.1,0.4,0.2,0.9,0.3,1.3c0.1,0.4,0.2,0.9,0.2,1.4
		c0.1,0.9,0.3,1.9,0.4,2.8c0.2,1.9,0.4,4,0.4,6c0.1,2.1-0.1,4.1-0.3,6.3c-0.3,2.1-0.4,4.2-0.8,6.3c-0.3,2.1-0.8,4.1-1.5,6
		c-0.4,0.9-0.8,1.8-1.2,2.7c-0.2,0.4-0.4,0.9-0.7,1.3c-0.2,0.4-0.5,0.8-0.8,1.2c-0.5,0.8-1,1.5-1.5,2.2c-0.5,0.7-1.1,1.3-1.6,1.9
		c-0.5,0.6-1.1,1.2-1.6,1.7c-0.6,0.5-1.1,0.9-1.6,1.3c-0.5,0.4-1,0.8-1.4,1.1c-0.5,0.3-0.9,0.6-1.3,0.8c-0.8,0.5-1.5,0.8-1.9,1
		c-0.5,0.2-0.7,0.3-0.7,0.3l-0.6-0.6c0,0,0.1-0.3,0.2-0.8c0.1-0.5,0.4-1.2,0.7-2c0.3-0.8,0.7-1.8,1.1-3c0.2-0.6,0.4-1.1,0.7-1.7
		c0.2-0.6,0.4-1.3,0.7-1.9c0.2-0.7,0.5-1.3,0.8-2c0.3-0.7,0.5-1.5,0.8-2.2c0.3-0.7,0.5-1.5,0.8-2.3c0.3-0.8,0.6-1.5,0.9-2.3
		c0.6-1.6,1.4-3.2,2.1-4.9c0.8-1.7,1.3-3.5,1.8-5.2c0.4-1.8,0.8-3.6,1-5.5c0.3-1.8,0.4-3.6,0.6-5.4c0.1-0.9,0-1.8,0.1-2.6
		c0-0.9,0-1.7,0-2.5c0-0.8-0.1-1.6-0.1-2.4c0-0.8-0.2-1.5-0.2-2.2c-0.1-0.7-0.2-1.4-0.2-2.1c-0.1-0.6-0.2-1.3-0.3-1.8
		c-0.1-0.6-0.2-1.1-0.3-1.6c-0.1-0.5-0.2-1-0.3-1.4c-0.4-1.7-0.7-2.7-0.7-2.7L220.9,97.5z"/>
</g>
<g>
	<path fill="#FFFFFF" d="M96.6,108.5l-1.8-1.9l-1.7-2l-1.7-2l-1.6-2.1l-1.5-2.2L86.8,96l-1.4-2.3l-1.3-2.3L82.9,89l-1.1-2.4l-1-2.5
		l-1-2.5L78.9,79l-0.8-2.6l-0.7-2.6l-0.6-2.6l4.6,0.2l-0.5,2.4l-0.4,2.4l-0.3,2.4l-0.3,2.4l-0.2,2.4L79.5,86l0,2.4l0,2.4l0.1,2.4
		l0.2,2.4l0.3,2.4l0.4,2.4l0.4,2.4l0.5,2.4l0.6,2.3l0.7,2.3l1.7,5.6l-5.9-1.1c-1-0.2-2.1-0.4-3.1-0.7c-1-0.3-2-0.6-3-0.9
		c-1-0.4-2-0.8-2.9-1.2c-1-0.4-1.9-0.9-2.8-1.4c-0.9-0.5-1.8-1.1-2.7-1.6c-0.9-0.6-1.7-1.2-2.6-1.8c-0.8-0.7-1.6-1.3-2.4-2
		c-0.8-0.7-1.5-1.5-2.3-2.2l7.1-2.4l0,2.1l0.2,2.1l0.3,2.1l0.5,2l0.6,2l0.8,2l0.9,1.9l1.1,1.8l1.2,1.7l1.3,1.6l1.4,1.5l1.5,1.4
		l1.6,1.3l1.7,1.1l1.8,1l1.9,0.8l9.3,4.1l-9.1,3.9l-3.5,1.5l-3.5,1.3l-3.6,1.2l-3.6,1.1l-3.6,0.9l-3.7,0.8l-3.7,0.6l-3.7,0.5
		l-3.7,0.4l-3.7,0.2l-3.7,0.1l-3.7-0.1l-3.7-0.2l-3.7-0.4l-3.7-0.5l-3.7-0.7L25,134l10.3,6.1l10.2,6.1l10.2,6.1l10.2,6.2
		c3.4,2.1,6.8,4.1,10.2,6.3l10.1,6.4c1.7,1.1,3.3,2.1,5,3.1c1.7,1,3.4,1.9,5.2,2.7c3.6,1.6,7.4,2.6,11.4,2.4
		c-3.9,0.8-8.1,0.3-12-0.9c-3.9-1.2-7.6-2.9-11.1-4.7L74,168.4c-3.6-1.8-7.1-3.6-10.6-5.4l-10.6-5.5L42.2,152l-10.6-5.6l-10.5-5.6
		L1.7,130.4l22,3.2l3.4,0.5l3.4,0.4l3.4,0.2l3.4,0.1l3.4,0l3.4-0.1l3.4-0.3l3.4-0.4l3.4-0.5l3.4-0.6l3.4-0.7l3.3-0.9l3.3-1l3.2-1.1
		l3.2-1.2l3.2-1.3l0.2,8l-2.6-1.1l-2.4-1.4l-2.3-1.5l-2.2-1.7l-2-1.9l-1.9-2l-1.7-2.2l-1.5-2.3l-1.4-2.4l-1.2-2.5l-1-2.6l-0.8-2.6
		l-0.6-2.7l-0.4-2.7l-0.1-2.8l0.1-2.8l0.4-10l6.7,7.5c0.6,0.6,1.1,1.2,1.7,1.8c0.6,0.6,1.2,1.1,1.9,1.7c0.7,0.5,1.3,1.1,2,1.6
		c0.7,0.5,1.4,1,2.1,1.4c0.7,0.4,1.5,0.8,2.2,1.2c0.8,0.4,1.5,0.7,2.3,1c0.8,0.3,1.6,0.6,2.4,0.9l1.2,0.4l1.2,0.3l-4.2,4.5l-0.6-2.6
		l-0.5-2.6l-0.4-2.6l-0.3-2.6l-0.3-2.6l-0.2-2.6l-0.1-2.6l0-2.6l0.1-2.6l0.2-2.6L74,83l0.4-2.6l0.5-2.6l0.6-2.6l0.6-2.5l0.7-2.5
		l3-10.3l1.5,10.6l0.4,2.5l0.4,2.5l0.5,2.5l0.6,2.5l0.7,2.5l0.8,2.5l0.9,2.4l0.9,2.4l1,2.4l1.1,2.4l1.2,2.3l1.2,2.3l1.3,2.3l1.4,2.2
		l1.4,2.2L96.6,108.5z"/>
</g>
<g>
</g>
<g>
</g>
<g>
</g>
<g>
</g>
<g>
</g>
<g>
</g>
<g>
</g>
<g>
</g>
<g>
</g>
<g>
</g>
<g>
</g>
<g>
</g>
<g>
</g>
<g>
</g>
<g>
</g>
</svg>
